{"title":"Star.Wars.Episode.VII.The.Force.Awakens.2015.BRRip.720p.x264.AAC","uid":14007667,"size":903156965,"categoryP":"video","categoryS":"hd___movies","magnet":"?xt=urn:btih:844ca98ce5a860a53a79d942a8fef499efffa210&amp;dn=Star.Wars.Episode.VII.The.Force.Awakens.2015.BRRip.720p.x264.AAC&amp;tr=udp%3A%2F%2Ftracker.leechers-paradise.org%3A6969&amp;tr=udp%3A%2F%2Fzer0day.ch%3A1337&amp;tr=udp%3A%2F%2Fopen.demonii.com%3A1337&amp;tr=udp%3A%2F%2Ftracker.coppersurfer.tk%3A6969&amp;tr=udp%3A%2F%2Fexodus.desync.com%3A6969","seeders":2,"leechers":4,"uploader":"VYTOP2PDL","files":7,"time":1458799692,"description":"____    ____ ____    ____ .___________.  ______   \r\n     /   /      /   / |           | /  __    \r\n    /   /      /   /  `---|  |----`|  |  |  | \r\n        /     _    _/       |  |     |  |  |  | \r\n       /        |  |         |  |     |  `--'  | \r\n    __/         |__|         |__|      ______/  \r\n                                                  \r\nPresenting Small Encodes with quality for years!\r\n                                                                                                   \r\n                                                                                                   \r\n\r\n\r\nStar.Wars.Episode.VII.The.Force.Awakens.2015.BRRip.720p.x264.AAC-PRiSTiNE\r\n\r\n\r\nGenre: Action, Adventure, Fantasy \nhttp://www.imdb.com/title/tt2488496/\r\n\r\n\r\nFormat                                   : MPEG-4\r\nFile size                                : 852 MiB\r\nDuration                                 : 2h 18mn\r\nOverall bit rate                         : 863 Kbps\r\n\r\nVideo\r\nFormat                                   : AVC\r\nBit rate                                 : 780 Kbps\r\nWidth                                    : 1 264 pixels\r\nHeight                                   : 528 pixels\r\nDisplay aspect ratio                     : 2.40:1\r\nFrame rate mode                          : Constant\r\nFrame rate                               : 23.976 fps\r\nBit depth                                : 8 bits\r\nStream size                              : 770 MiB (90%)\r\nWriting library                          : x264\r\n\r\nAudio\r\nFormat                                   : AAC\r\nBit rate mode                            : Variable\r\nBit rate                                 : 79.8 Kbps\r\nChannel(s)                               : 2 channels\r\nChannel positions                        : Front: L R\r\nSampling rate                            : 48.0 KHz\r\nStream size                              : 78.8 MiB (9%)\r\nLanguage                                 : English\r\n\r\nSubtitle                                 : Yes (English)\r\n\r\nscreen Shot: (Click to view)\r\n \nhttp://ititli.com/XHo \nhttp://ititli.com/XHG \nhttp://ititli.com/XHH \nhttp://ititli.com/XHM \nhttp://ititli.com/XHU \nhttp://ititli.com/XHh \nhttp://ititli.com/XHs \nhttp://ititli.com/XHY \nhttp://ititli.com/XH4\r\n\r\n----------------------------------------------------------------------------------------------------\r\n\r\n\r\nEncoder Notes: Looking For Early Access To Anything You Can Provide WEBDL, DVDScr, DVDR, BluRay,\r\nDirect Audio, Music Releases and Seedboxes. If You Got anything to offer please contact us.\r\n\r\nSupport us by donating BC - 1FgwdzPsd1y25Gea8wP1qni35uGCtmkRCD\r\n\r\nFind us and join us!","torrent":{"xt":"urn:btih:844ca98ce5a860a53a79d942a8fef499efffa210","amp;dn":"Star.Wars.Episode.VII.The.Force.Awakens.2015.BRRip.720p.x264.AAC","amp;tr":["udp%3A%2F%2Ftracker.leechers-paradise.org%3A6969","udp%3A%2F%2Fzer0day.ch%3A1337","udp%3A%2F%2Fopen.demonii.com%3A1337","udp%3A%2F%2Ftracker.coppersurfer.tk%3A6969","udp%3A%2F%2Fexodus.desync.com%3A6969"],"infoHash":"844ca98ce5a860a53a79d942a8fef499efffa210","infoHashBuffer":{"type":"Buffer","data":[132,76,169,140,229,168,96,165,58,121,217,66,168,254,244,153,239,255,162,16]},"announce":[],"urlList":[]}}